<mxfile host="app.diagrams.net" modified="2024-07-11T23:39:06.773Z" agent="Mozilla/5.0 (Macintosh; Intel Mac OS X 10_15_7) AppleWebKit/537.36 (KHTML, like Gecko) Chrome/126.0.0.0 Safari/537.36" etag="0de9hTLGnZg4vDfXjH09" version="24.6.4" type="device">
  <diagram name="Page-1" id="d7QNU4ZLuxQ-TwkCOcYL">
    <mxGraphModel dx="2817" dy="3300" grid="1" gridSize="10" guides="1" tooltips="1" connect="1" arrows="1" fold="1" page="1" pageScale="1" pageWidth="850" pageHeight="1100" math="0" shadow="0">
      <root>
        <mxCell id="0" />
        <mxCell id="1" parent="0" />
        <mxCell id="OMLcVuNN48qZMGDoJ0aI-1" value="Pet" style="swimlane;fontStyle=1;align=center;verticalAlign=top;childLayout=stackLayout;horizontal=1;startSize=26;horizontalStack=0;resizeParent=1;resizeParentMax=0;resizeLast=0;collapsible=1;marginBottom=0;whiteSpace=wrap;html=1;" vertex="1" parent="1">
          <mxGeometry x="215" y="70" width="400" height="400" as="geometry" />
        </mxCell>
        <mxCell id="OMLcVuNN48qZMGDoJ0aI-2" value="-nameofPet: String&lt;div&gt;-breed: String&lt;/div&gt;&lt;div&gt;-age: int&lt;/div&gt;&lt;div&gt;-medicalConditions:String&lt;/div&gt;" style="text;strokeColor=none;fillColor=none;align=left;verticalAlign=top;spacingLeft=4;spacingRight=4;overflow=hidden;rotatable=0;points=[[0,0.5],[1,0.5]];portConstraint=eastwest;whiteSpace=wrap;html=1;" vertex="1" parent="OMLcVuNN48qZMGDoJ0aI-1">
          <mxGeometry y="26" width="400" height="94" as="geometry" />
        </mxCell>
        <mxCell id="OMLcVuNN48qZMGDoJ0aI-3" value="" style="line;strokeWidth=1;fillColor=none;align=left;verticalAlign=middle;spacingTop=-1;spacingLeft=3;spacingRight=3;rotatable=0;labelPosition=right;points=[];portConstraint=eastwest;strokeColor=inherit;" vertex="1" parent="OMLcVuNN48qZMGDoJ0aI-1">
          <mxGeometry y="120" width="400" height="8" as="geometry" />
        </mxCell>
        <mxCell id="OMLcVuNN48qZMGDoJ0aI-4" value="+pet( nameofpet:String, breed: String, age:int, medicalCondtion:String)&lt;div&gt;&lt;br&gt;&lt;div&gt;+getName():String&lt;/div&gt;&lt;div&gt;&lt;br&gt;&lt;/div&gt;&lt;div&gt;+getBreed(): String&lt;/div&gt;&lt;div&gt;&lt;br&gt;&lt;/div&gt;&lt;div&gt;+getAge(): String&lt;/div&gt;&lt;div&gt;&lt;br&gt;&lt;/div&gt;&lt;div&gt;+getMedicalCondition(): String&lt;/div&gt;&lt;div&gt;&lt;br&gt;&lt;/div&gt;&lt;div&gt;+SetName(name:String)&lt;/div&gt;&lt;div&gt;&lt;br&gt;&lt;/div&gt;&lt;div&gt;+SetBreed(breed:String)&lt;/div&gt;&lt;div&gt;&lt;br&gt;&lt;/div&gt;&lt;div&gt;+SetAge(age:Int)&amp;nbsp;&lt;/div&gt;&lt;div&gt;&lt;br&gt;&lt;/div&gt;&lt;div&gt;+SetMedicalCondtions(medicalConditions: String)&lt;/div&gt;&lt;div&gt;&lt;br&gt;&lt;/div&gt;&lt;div&gt;&lt;br&gt;&lt;/div&gt;&lt;/div&gt;" style="text;strokeColor=none;fillColor=none;align=left;verticalAlign=top;spacingLeft=4;spacingRight=4;overflow=hidden;rotatable=0;points=[[0,0.5],[1,0.5]];portConstraint=eastwest;whiteSpace=wrap;html=1;" vertex="1" parent="OMLcVuNN48qZMGDoJ0aI-1">
          <mxGeometry y="128" width="400" height="272" as="geometry" />
        </mxCell>
        <mxCell id="OMLcVuNN48qZMGDoJ0aI-5" value="Client" style="swimlane;fontStyle=1;align=center;verticalAlign=top;childLayout=stackLayout;horizontal=1;startSize=26;horizontalStack=0;resizeParent=1;resizeParentMax=0;resizeLast=0;collapsible=1;marginBottom=0;whiteSpace=wrap;html=1;" vertex="1" parent="1">
          <mxGeometry x="-450" y="200" width="300" height="410" as="geometry" />
        </mxCell>
        <mxCell id="OMLcVuNN48qZMGDoJ0aI-6" value="-firstName:String&lt;div&gt;-lastName:String&lt;/div&gt;&lt;div&gt;-phoneNumber:String&lt;/div&gt;&lt;div&gt;-address: String&lt;/div&gt;&lt;div&gt;&lt;br&gt;&lt;/div&gt;&lt;div&gt;&lt;div&gt;&lt;br&gt;&lt;/div&gt;&lt;/div&gt;" style="text;strokeColor=none;fillColor=none;align=left;verticalAlign=top;spacingLeft=4;spacingRight=4;overflow=hidden;rotatable=0;points=[[0,0.5],[1,0.5]];portConstraint=eastwest;whiteSpace=wrap;html=1;" vertex="1" parent="OMLcVuNN48qZMGDoJ0aI-5">
          <mxGeometry y="26" width="300" height="94" as="geometry" />
        </mxCell>
        <mxCell id="OMLcVuNN48qZMGDoJ0aI-7" value="" style="line;strokeWidth=1;fillColor=none;align=left;verticalAlign=middle;spacingTop=-1;spacingLeft=3;spacingRight=3;rotatable=0;labelPosition=right;points=[];portConstraint=eastwest;strokeColor=inherit;" vertex="1" parent="OMLcVuNN48qZMGDoJ0aI-5">
          <mxGeometry y="120" width="300" height="8" as="geometry" />
        </mxCell>
        <mxCell id="OMLcVuNN48qZMGDoJ0aI-8" value="+Client(firstName:String, lasyName:String, phoneNumber:String, address:String)&lt;div&gt;&lt;br&gt;&lt;/div&gt;&lt;div&gt;+getFirstName():String&lt;/div&gt;&lt;div&gt;&lt;br&gt;&lt;/div&gt;&lt;div&gt;+getLastName():String&lt;/div&gt;&lt;div&gt;&lt;br&gt;&lt;/div&gt;&lt;div&gt;+getPhoneNumber():String&lt;/div&gt;&lt;div&gt;&lt;br&gt;&lt;/div&gt;&lt;div&gt;+getAddress():String&lt;/div&gt;&lt;div&gt;&lt;br&gt;&lt;/div&gt;&lt;div&gt;+setFirstName(firstnName:String)&lt;/div&gt;&lt;div&gt;&lt;br&gt;&lt;/div&gt;&lt;div&gt;+setLastName(lastName:String)&lt;/div&gt;&lt;div&gt;&lt;br&gt;&lt;/div&gt;&lt;div&gt;+setPhoneNumber(phoneNumber:String)&lt;/div&gt;&lt;div&gt;&lt;br&gt;&lt;/div&gt;&lt;div&gt;+setAddress(adress:String&amp;nbsp;&lt;br&gt;&lt;div&gt;&lt;br&gt;&lt;/div&gt;&lt;div&gt;&lt;br&gt;&lt;/div&gt;&lt;/div&gt;" style="text;strokeColor=none;fillColor=none;align=left;verticalAlign=top;spacingLeft=4;spacingRight=4;overflow=hidden;rotatable=0;points=[[0,0.5],[1,0.5]];portConstraint=eastwest;whiteSpace=wrap;html=1;" vertex="1" parent="OMLcVuNN48qZMGDoJ0aI-5">
          <mxGeometry y="128" width="300" height="282" as="geometry" />
        </mxCell>
        <mxCell id="OMLcVuNN48qZMGDoJ0aI-10" value="Appointment" style="swimlane;fontStyle=1;align=center;verticalAlign=top;childLayout=stackLayout;horizontal=1;startSize=26;horizontalStack=0;resizeParent=1;resizeParentMax=0;resizeLast=0;collapsible=1;marginBottom=0;whiteSpace=wrap;html=1;" vertex="1" parent="1">
          <mxGeometry x="-350" y="720" width="270" height="380" as="geometry" />
        </mxCell>
        <mxCell id="OMLcVuNN48qZMGDoJ0aI-11" value="-date:Date&lt;div&gt;-time:String&lt;/div&gt;&lt;div&gt;-purpose:String&lt;/div&gt;" style="text;strokeColor=none;fillColor=none;align=left;verticalAlign=top;spacingLeft=4;spacingRight=4;overflow=hidden;rotatable=0;points=[[0,0.5],[1,0.5]];portConstraint=eastwest;whiteSpace=wrap;html=1;" vertex="1" parent="OMLcVuNN48qZMGDoJ0aI-10">
          <mxGeometry y="26" width="270" height="104" as="geometry" />
        </mxCell>
        <mxCell id="OMLcVuNN48qZMGDoJ0aI-12" value="" style="line;strokeWidth=1;fillColor=none;align=left;verticalAlign=middle;spacingTop=-1;spacingLeft=3;spacingRight=3;rotatable=0;labelPosition=right;points=[];portConstraint=eastwest;strokeColor=inherit;" vertex="1" parent="OMLcVuNN48qZMGDoJ0aI-10">
          <mxGeometry y="130" width="270" height="8" as="geometry" />
        </mxCell>
        <mxCell id="OMLcVuNN48qZMGDoJ0aI-13" value="&lt;div&gt;+Appointment(date:Date, time:String, purpose:String)&lt;/div&gt;&lt;div&gt;&lt;br&gt;&lt;/div&gt;&lt;div&gt;+getDate():Date&lt;/div&gt;&lt;div&gt;&lt;br&gt;&lt;/div&gt;&lt;div&gt;+getTime()String&lt;/div&gt;&lt;div&gt;&lt;br&gt;&lt;/div&gt;&lt;div&gt;+getPurpose():String&lt;/div&gt;&lt;div&gt;&lt;br&gt;&lt;/div&gt;&lt;div&gt;+setDarte(date:Date)&lt;/div&gt;&lt;div&gt;&lt;br&gt;&lt;/div&gt;&lt;div&gt;+setTime(time:String)&lt;/div&gt;&lt;div&gt;&lt;br&gt;&lt;/div&gt;&lt;div&gt;+setPurpose(purpose:String)&lt;/div&gt;" style="text;strokeColor=none;fillColor=none;align=left;verticalAlign=top;spacingLeft=4;spacingRight=4;overflow=hidden;rotatable=0;points=[[0,0.5],[1,0.5]];portConstraint=eastwest;whiteSpace=wrap;html=1;" vertex="1" parent="OMLcVuNN48qZMGDoJ0aI-10">
          <mxGeometry y="138" width="270" height="242" as="geometry" />
        </mxCell>
        <mxCell id="OMLcVuNN48qZMGDoJ0aI-15" value="&lt;p style=&quot;margin:0px;margin-top:4px;text-align:center;&quot;&gt;&lt;b&gt;CareProfle&lt;/b&gt;&lt;/p&gt;&lt;hr size=&quot;1&quot; style=&quot;border-style:solid;&quot;&gt;&lt;p style=&quot;margin:0px;margin-left:4px;&quot;&gt;-feedingIntstruction:String&lt;/p&gt;&lt;p style=&quot;margin:0px;margin-left:4px;&quot;&gt;-medicatonList:&amp;lt;Medication&amp;gt;:List&lt;/p&gt;&lt;p style=&quot;margin:0px;margin-left:4px;&quot;&gt;-medicationInstructions:String&lt;/p&gt;&lt;p style=&quot;margin:0px;margin-left:4px;&quot;&gt;&lt;br&gt;&lt;/p&gt;&lt;p style=&quot;margin:0px;margin-left:4px;&quot;&gt;&lt;br&gt;&lt;/p&gt;&lt;p style=&quot;margin:0px;margin-left:4px;&quot;&gt;&lt;br&gt;&lt;/p&gt;&lt;hr size=&quot;1&quot; style=&quot;border-style:solid;&quot;&gt;&lt;p style=&quot;margin:0px;margin-left:4px;&quot;&gt;+ CareProfile(feedingInstruction:String, medicationList:&amp;lt;Medication&amp;gt;)&lt;/p&gt;&lt;p style=&quot;margin:0px;margin-left:4px;&quot;&gt;&lt;br&gt;&lt;/p&gt;&lt;p style=&quot;margin:0px;margin-left:4px;&quot;&gt;+getFeedingInstruction():String&lt;/p&gt;&lt;p style=&quot;margin:0px;margin-left:4px;&quot;&gt;&lt;br&gt;&lt;/p&gt;&lt;p style=&quot;margin:0px;margin-left:4px;&quot;&gt;+getMedicationList():&amp;lt;Medication&amp;gt;&lt;/p&gt;&lt;p style=&quot;margin:0px;margin-left:4px;&quot;&gt;&lt;br&gt;&lt;/p&gt;&lt;p style=&quot;margin:0px;margin-left:4px;&quot;&gt;+getMedicationInstructions():String&lt;/p&gt;&lt;p style=&quot;margin:0px;margin-left:4px;&quot;&gt;&lt;br&gt;&lt;/p&gt;&lt;p style=&quot;margin:0px;margin-left:4px;&quot;&gt;+setFeedingInstruction(feedingInstruction:String)&lt;/p&gt;&lt;p style=&quot;margin:0px;margin-left:4px;&quot;&gt;&lt;br&gt;&lt;/p&gt;&lt;p style=&quot;margin:0px;margin-left:4px;&quot;&gt;+setMedicationInstructions(medicationInstructions:String)&lt;br&gt;&lt;br&gt;&lt;/p&gt;&lt;p style=&quot;margin:0px;margin-left:4px;&quot;&gt;+setMedicationList(List&amp;lt;Medication&amp;gt;medicationList)&lt;/p&gt;&lt;p style=&quot;margin:0px;margin-left:4px;&quot;&gt;&lt;br&gt;&lt;/p&gt;&lt;p style=&quot;margin:0px;margin-left:4px;&quot;&gt;&lt;br&gt;&lt;/p&gt;" style="verticalAlign=top;align=left;overflow=fill;html=1;whiteSpace=wrap;" vertex="1" parent="1">
          <mxGeometry x="100" y="740" width="330" height="360" as="geometry" />
        </mxCell>
        <mxCell id="OMLcVuNN48qZMGDoJ0aI-16" value="" style="endArrow=diamondThin;endFill=0;endSize=24;html=1;rounded=0;entryX=0.992;entryY=0.953;entryDx=0;entryDy=0;entryPerimeter=0;exitX=0;exitY=0.938;exitDx=0;exitDy=0;exitPerimeter=0;" edge="1" parent="1" source="OMLcVuNN48qZMGDoJ0aI-2" target="OMLcVuNN48qZMGDoJ0aI-6">
          <mxGeometry width="160" relative="1" as="geometry">
            <mxPoint x="110" y="250" as="sourcePoint" />
            <mxPoint x="230" y="310" as="targetPoint" />
          </mxGeometry>
        </mxCell>
        <mxCell id="OMLcVuNN48qZMGDoJ0aI-18" value="1..*" style="text;html=1;align=center;verticalAlign=middle;resizable=0;points=[];autosize=1;strokeColor=none;fillColor=none;" vertex="1" parent="1">
          <mxGeometry x="175" y="160" width="40" height="30" as="geometry" />
        </mxCell>
        <mxCell id="OMLcVuNN48qZMGDoJ0aI-19" value="1" style="text;html=1;align=center;verticalAlign=middle;resizable=0;points=[];autosize=1;strokeColor=none;fillColor=none;" vertex="1" parent="1">
          <mxGeometry x="-140" y="280" width="30" height="30" as="geometry" />
        </mxCell>
        <mxCell id="OMLcVuNN48qZMGDoJ0aI-20" value="" style="endArrow=diamondThin;endFill=1;endSize=24;html=1;rounded=0;entryX=0.067;entryY=1.044;entryDx=0;entryDy=0;entryPerimeter=0;" edge="1" parent="1" target="OMLcVuNN48qZMGDoJ0aI-22">
          <mxGeometry width="160" relative="1" as="geometry">
            <mxPoint x="400" y="470" as="sourcePoint" />
            <mxPoint x="400" y="610" as="targetPoint" />
          </mxGeometry>
        </mxCell>
        <mxCell id="OMLcVuNN48qZMGDoJ0aI-21" value="1" style="text;html=1;align=center;verticalAlign=middle;resizable=0;points=[];autosize=1;strokeColor=none;fillColor=none;" vertex="1" parent="1">
          <mxGeometry x="395" y="468" width="30" height="30" as="geometry" />
        </mxCell>
        <mxCell id="OMLcVuNN48qZMGDoJ0aI-22" value="0..1" style="text;html=1;align=center;verticalAlign=middle;resizable=0;points=[];autosize=1;strokeColor=none;fillColor=none;" vertex="1" parent="1">
          <mxGeometry x="395" y="710" width="40" height="30" as="geometry" />
        </mxCell>
        <mxCell id="OMLcVuNN48qZMGDoJ0aI-23" value="" style="endArrow=none;html=1;rounded=0;entryX=0.065;entryY=1;entryDx=0;entryDy=0;entryPerimeter=0;exitX=1.004;exitY=0.968;exitDx=0;exitDy=0;exitPerimeter=0;" edge="1" parent="1" source="OMLcVuNN48qZMGDoJ0aI-11" target="OMLcVuNN48qZMGDoJ0aI-4">
          <mxGeometry width="50" height="50" relative="1" as="geometry">
            <mxPoint x="160" y="730" as="sourcePoint" />
            <mxPoint x="210" y="680" as="targetPoint" />
            <Array as="points">
              <mxPoint y="847" />
              <mxPoint y="560" />
              <mxPoint x="241" y="560" />
            </Array>
          </mxGeometry>
        </mxCell>
        <mxCell id="OMLcVuNN48qZMGDoJ0aI-24" value="1" style="text;html=1;align=center;verticalAlign=middle;resizable=0;points=[];autosize=1;strokeColor=none;fillColor=none;" vertex="1" parent="1">
          <mxGeometry x="215" y="468" width="30" height="30" as="geometry" />
        </mxCell>
        <mxCell id="OMLcVuNN48qZMGDoJ0aI-25" value="0..*" style="text;html=1;align=center;verticalAlign=middle;resizable=0;points=[];autosize=1;strokeColor=none;fillColor=none;" vertex="1" parent="1">
          <mxGeometry x="-80" y="810" width="40" height="30" as="geometry" />
        </mxCell>
        <mxCell id="OMLcVuNN48qZMGDoJ0aI-31" value="&lt;p style=&quot;margin:0px;margin-top:4px;text-align:center;&quot;&gt;&lt;b&gt;Booking&lt;/b&gt;&lt;/p&gt;&lt;hr size=&quot;1&quot; style=&quot;border-style:solid;&quot;&gt;&lt;p style=&quot;margin:0px;margin-left:4px;&quot;&gt;-pet:Pet&lt;/p&gt;&lt;p style=&quot;margin:0px;margin-left:4px;&quot;&gt;-duration:Int&lt;/p&gt;&lt;p style=&quot;margin:0px;margin-left:4px;&quot;&gt;-bookingDate:Date&lt;/p&gt;&lt;p style=&quot;margin:0px;margin-left:4px;&quot;&gt;-paymentStatus:String&lt;/p&gt;&lt;p style=&quot;margin:0px;margin-left:4px;&quot;&gt;&lt;br&gt;&lt;/p&gt;&lt;p style=&quot;margin:0px;margin-left:4px;&quot;&gt;&lt;br&gt;&lt;/p&gt;&lt;p style=&quot;margin:0px;margin-left:4px;&quot;&gt;&lt;br&gt;&lt;/p&gt;&lt;hr size=&quot;1&quot; style=&quot;border-style:solid;&quot;&gt;&lt;p style=&quot;margin:0px;margin-left:4px;&quot;&gt;+ Booking(pet:Pet, duration:int, bookingDate:Date, paymentStatus:String)&lt;/p&gt;&lt;p style=&quot;margin:0px;margin-left:4px;&quot;&gt;&lt;br&gt;&lt;/p&gt;&lt;p style=&quot;margin:0px;margin-left:4px;&quot;&gt;+getPet():Pet&lt;/p&gt;&lt;p style=&quot;margin:0px;margin-left:4px;&quot;&gt;&lt;br&gt;&lt;/p&gt;&lt;p style=&quot;margin:0px;margin-left:4px;&quot;&gt;+getDuration():int&lt;/p&gt;&lt;p style=&quot;margin:0px;margin-left:4px;&quot;&gt;&lt;br&gt;&lt;/p&gt;&lt;p style=&quot;margin:0px;margin-left:4px;&quot;&gt;+getBookingDate():Date&lt;/p&gt;&lt;p style=&quot;margin:0px;margin-left:4px;&quot;&gt;&lt;br&gt;&lt;/p&gt;&lt;p style=&quot;margin:0px;margin-left:4px;&quot;&gt;getPaymentStatus():String&lt;/p&gt;&lt;p style=&quot;margin:0px;margin-left:4px;&quot;&gt;&lt;br&gt;&lt;/p&gt;&lt;p style=&quot;margin:0px;margin-left:4px;&quot;&gt;+setPet(pet:Pet)&lt;/p&gt;&lt;p style=&quot;margin:0px;margin-left:4px;&quot;&gt;&lt;br&gt;&lt;/p&gt;&lt;p style=&quot;margin:0px;margin-left:4px;&quot;&gt;+setDuration(duration:int)&lt;br&gt;&lt;br&gt;&lt;/p&gt;&lt;p style=&quot;margin:0px;margin-left:4px;&quot;&gt;+setPaymentStatus(paymentstatus:String)&lt;/p&gt;&lt;p style=&quot;margin:0px;margin-left:4px;&quot;&gt;&lt;br&gt;&lt;/p&gt;&lt;p style=&quot;margin:0px;margin-left:4px;&quot;&gt;&lt;br&gt;&lt;/p&gt;" style="verticalAlign=top;align=left;overflow=fill;html=1;whiteSpace=wrap;" vertex="1" parent="1">
          <mxGeometry x="790" y="80" width="350" height="400" as="geometry" />
        </mxCell>
        <mxCell id="OMLcVuNN48qZMGDoJ0aI-32" value="" style="endArrow=none;html=1;rounded=0;entryX=0;entryY=0.25;entryDx=0;entryDy=0;" edge="1" parent="1" target="OMLcVuNN48qZMGDoJ0aI-31">
          <mxGeometry width="50" height="50" relative="1" as="geometry">
            <mxPoint x="615" y="180" as="sourcePoint" />
            <mxPoint x="660" y="130" as="targetPoint" />
          </mxGeometry>
        </mxCell>
        <mxCell id="OMLcVuNN48qZMGDoJ0aI-33" value="1" style="text;html=1;align=center;verticalAlign=middle;resizable=0;points=[];autosize=1;strokeColor=none;fillColor=none;" vertex="1" parent="1">
          <mxGeometry x="610" y="158" width="30" height="30" as="geometry" />
        </mxCell>
        <mxCell id="OMLcVuNN48qZMGDoJ0aI-34" value="0..*" style="text;html=1;align=center;verticalAlign=middle;resizable=0;points=[];autosize=1;strokeColor=none;fillColor=none;" vertex="1" parent="1">
          <mxGeometry x="760" y="158" width="40" height="30" as="geometry" />
        </mxCell>
        <mxCell id="OMLcVuNN48qZMGDoJ0aI-35" value="&lt;p style=&quot;margin:0px;margin-top:4px;text-align:center;&quot;&gt;&lt;b&gt;Medicaton&lt;/b&gt;&lt;/p&gt;&lt;hr size=&quot;1&quot; style=&quot;border-style:solid;&quot;&gt;&lt;p style=&quot;margin:0px;margin-left:4px;&quot;&gt;-nameofMedicince:String&lt;/p&gt;&lt;p style=&quot;margin:0px;margin-left:4px;&quot;&gt;-dosage:String&lt;/p&gt;&lt;p style=&quot;margin:0px;margin-left:4px;&quot;&gt;-frequency:String&lt;/p&gt;&lt;p style=&quot;margin:0px;margin-left:4px;&quot;&gt;-administrationMethod:String&lt;/p&gt;&lt;p style=&quot;margin:0px;margin-left:4px;&quot;&gt;&lt;br&gt;&lt;/p&gt;&lt;p style=&quot;margin:0px;margin-left:4px;&quot;&gt;&lt;br&gt;&lt;/p&gt;&lt;hr size=&quot;1&quot; style=&quot;border-style:solid;&quot;&gt;&lt;p style=&quot;margin:0px;margin-left:4px;&quot;&gt;+ Medication(nameofMedicine:String, dosage:String, frequency:String ,administrationMethod:String)&lt;/p&gt;&lt;p style=&quot;margin:0px;margin-left:4px;&quot;&gt;&lt;br&gt;&lt;/p&gt;&lt;p style=&quot;margin:0px;margin-left:4px;&quot;&gt;+getNameOfMedicine():String&lt;/p&gt;&lt;p style=&quot;margin:0px;margin-left:4px;&quot;&gt;&lt;br&gt;&lt;/p&gt;&lt;p style=&quot;margin:0px;margin-left:4px;&quot;&gt;+getDosage():String&lt;/p&gt;&lt;p style=&quot;margin:0px;margin-left:4px;&quot;&gt;&lt;br&gt;&lt;/p&gt;&lt;p style=&quot;margin:0px;margin-left:4px;&quot;&gt;+getFrequency():String&lt;/p&gt;&lt;p style=&quot;margin:0px;margin-left:4px;&quot;&gt;&lt;br&gt;&lt;/p&gt;&lt;p style=&quot;margin:0px;margin-left:4px;&quot;&gt;+getAdministrationMethod():String&lt;/p&gt;&lt;p style=&quot;margin:0px;margin-left:4px;&quot;&gt;&lt;br&gt;&lt;/p&gt;&lt;p style=&quot;margin:0px;margin-left:4px;&quot;&gt;+setNameOfMedicine(nameofMedicine:String)&lt;br&gt;&lt;br&gt;&lt;/p&gt;&lt;p style=&quot;margin:0px;margin-left:4px;&quot;&gt;+setDosage(dosage:String)&lt;/p&gt;&lt;p style=&quot;margin:0px;margin-left:4px;&quot;&gt;&lt;br&gt;&lt;/p&gt;&lt;p style=&quot;margin:0px;margin-left:4px;&quot;&gt;+setAdministrationMethod(administration:String)&lt;/p&gt;&lt;p style=&quot;margin:0px;margin-left:4px;&quot;&gt;&lt;br&gt;&lt;/p&gt;&lt;p style=&quot;margin:0px;margin-left:4px;&quot;&gt;&lt;br&gt;&lt;/p&gt;&lt;p style=&quot;margin:0px;margin-left:4px;&quot;&gt;&lt;br&gt;&lt;/p&gt;&lt;p style=&quot;margin:0px;margin-left:4px;&quot;&gt;&lt;br&gt;&lt;/p&gt;" style="verticalAlign=top;align=left;overflow=fill;html=1;whiteSpace=wrap;" vertex="1" parent="1">
          <mxGeometry x="760" y="605" width="340" height="370" as="geometry" />
        </mxCell>
        <mxCell id="OMLcVuNN48qZMGDoJ0aI-36" value="" style="endArrow=none;html=1;rounded=0;entryX=1.14;entryY=0.925;entryDx=0;entryDy=0;exitX=0.999;exitY=0.411;exitDx=0;exitDy=0;exitPerimeter=0;entryPerimeter=0;" edge="1" parent="1" source="OMLcVuNN48qZMGDoJ0aI-15" target="OMLcVuNN48qZMGDoJ0aI-38">
          <mxGeometry width="50" height="50" relative="1" as="geometry">
            <mxPoint x="580" y="780" as="sourcePoint" />
            <mxPoint x="630" y="730" as="targetPoint" />
            <Array as="points">
              <mxPoint x="480" y="888" />
              <mxPoint x="480" y="756" />
            </Array>
          </mxGeometry>
        </mxCell>
        <mxCell id="OMLcVuNN48qZMGDoJ0aI-37" value="1" style="text;html=1;align=center;verticalAlign=middle;resizable=0;points=[];autosize=1;strokeColor=none;fillColor=none;" vertex="1" parent="1">
          <mxGeometry x="425" y="860" width="30" height="30" as="geometry" />
        </mxCell>
        <mxCell id="OMLcVuNN48qZMGDoJ0aI-38" value="0..*" style="text;html=1;align=center;verticalAlign=middle;resizable=0;points=[];autosize=1;strokeColor=none;fillColor=none;" vertex="1" parent="1">
          <mxGeometry x="720" y="728" width="40" height="30" as="geometry" />
        </mxCell>
        <mxCell id="OMLcVuNN48qZMGDoJ0aI-39" value="&lt;p style=&quot;margin:0px;margin-top:4px;text-align:center;&quot;&gt;&lt;b&gt;BoardingFacility&lt;/b&gt;&lt;/p&gt;&lt;hr size=&quot;1&quot; style=&quot;border-style:solid;&quot;&gt;&lt;p style=&quot;margin:0px;margin-left:4px;&quot;&gt;-facilityName:String&lt;/p&gt;&lt;p style=&quot;margin:0px;margin-left:4px;&quot;&gt;-location:String&lt;/p&gt;&lt;p style=&quot;margin:0px;margin-left:4px;&quot;&gt;&lt;br&gt;&lt;/p&gt;&lt;p style=&quot;margin:0px;margin-left:4px;&quot;&gt;&lt;br&gt;&lt;/p&gt;&lt;hr size=&quot;1&quot; style=&quot;border-style:solid;&quot;&gt;&lt;p style=&quot;margin:0px;margin-left:4px;&quot;&gt;+BoadingFacility(facility:String, location:String)&lt;/p&gt;&lt;p style=&quot;margin:0px;margin-left:4px;&quot;&gt;&lt;br&gt;&lt;/p&gt;&lt;p style=&quot;margin:0px;margin-left:4px;&quot;&gt;+getFacilityame:String&lt;/p&gt;&lt;p style=&quot;margin:0px;margin-left:4px;&quot;&gt;&lt;br&gt;&lt;/p&gt;&lt;p style=&quot;margin:0px;margin-left:4px;&quot;&gt;+getlocation: String&lt;/p&gt;&lt;p style=&quot;margin:0px;margin-left:4px;&quot;&gt;&lt;br&gt;&lt;/p&gt;&lt;p style=&quot;margin:0px;margin-left:4px;&quot;&gt;+setFacilityName(facilityName:String)&lt;/p&gt;&lt;p style=&quot;margin:0px;margin-left:4px;&quot;&gt;&lt;br&gt;&lt;/p&gt;&lt;p style=&quot;margin:0px;margin-left:4px;&quot;&gt;+setLocation(location:String)&lt;/p&gt;&lt;p style=&quot;margin:0px;margin-left:4px;&quot;&gt;&lt;br&gt;&lt;/p&gt;&lt;p style=&quot;margin:0px;margin-left:4px;&quot;&gt;&lt;br&gt;&lt;/p&gt;&lt;p style=&quot;margin:0px;margin-left:4px;&quot;&gt;&lt;br&gt;&lt;/p&gt;" style="verticalAlign=top;align=left;overflow=fill;html=1;whiteSpace=wrap;" vertex="1" parent="1">
          <mxGeometry x="250" y="-230" width="330" height="250" as="geometry" />
        </mxCell>
        <mxCell id="OMLcVuNN48qZMGDoJ0aI-40" value="&lt;p style=&quot;margin:0px;margin-top:4px;text-align:center;&quot;&gt;&lt;b&gt;ClientRelationship&lt;/b&gt;&lt;/p&gt;&lt;hr size=&quot;1&quot; style=&quot;border-style:solid;&quot;&gt;&lt;p style=&quot;margin:0px;margin-left:4px;&quot;&gt;-startDate:Date&lt;/p&gt;&lt;p style=&quot;margin:0px;margin-left:4px;&quot;&gt;&lt;span style=&quot;background-color: initial;&quot;&gt;-endDate:Date&lt;/span&gt;&lt;/p&gt;&lt;p style=&quot;margin:0px;margin-left:4px;&quot;&gt;-reason:String&lt;/p&gt;&lt;p style=&quot;margin:0px;margin-left:4px;&quot;&gt;&lt;br&gt;&lt;/p&gt;&lt;p style=&quot;margin:0px;margin-left:4px;&quot;&gt;&lt;br&gt;&lt;/p&gt;&lt;hr size=&quot;1&quot; style=&quot;border-style:solid;&quot;&gt;&lt;p style=&quot;margin:0px;margin-left:4px;&quot;&gt;+ClientRelationship(startDate:Date, endDate:Date, reason:String)&lt;/p&gt;&lt;p style=&quot;margin:0px;margin-left:4px;&quot;&gt;&lt;br&gt;&lt;/p&gt;&lt;p style=&quot;margin:0px;margin-left:4px;&quot;&gt;+getStartDate():Date&lt;/p&gt;&lt;p style=&quot;margin:0px;margin-left:4px;&quot;&gt;&lt;br&gt;&lt;/p&gt;&lt;p style=&quot;margin:0px;margin-left:4px;&quot;&gt;+getEndDate():Date&lt;/p&gt;&lt;p style=&quot;margin:0px;margin-left:4px;&quot;&gt;&lt;br&gt;&lt;/p&gt;&lt;p style=&quot;margin:0px;margin-left:4px;&quot;&gt;+getReason():String&lt;/p&gt;&lt;p style=&quot;margin:0px;margin-left:4px;&quot;&gt;&lt;br&gt;&lt;/p&gt;&lt;p style=&quot;margin:0px;margin-left:4px;&quot;&gt;+setStartDate(startDate:Date)&lt;/p&gt;&lt;p style=&quot;margin:0px;margin-left:4px;&quot;&gt;&lt;br&gt;&lt;/p&gt;&lt;p style=&quot;margin:0px;margin-left:4px;&quot;&gt;+setEndDate(endDate:Date)&lt;br&gt;&lt;/p&gt;&lt;p style=&quot;margin:0px;margin-left:4px;&quot;&gt;&lt;br&gt;&lt;/p&gt;&lt;p style=&quot;margin:0px;margin-left:4px;&quot;&gt;+setReason(reason:String)&lt;/p&gt;&lt;p style=&quot;margin:0px;margin-left:4px;&quot;&gt;&lt;br&gt;&lt;/p&gt;&lt;p style=&quot;margin:0px;margin-left:4px;&quot;&gt;&lt;br&gt;&lt;/p&gt;&lt;p style=&quot;margin:0px;margin-left:4px;&quot;&gt;&lt;br&gt;&lt;/p&gt;&lt;p style=&quot;margin:0px;margin-left:4px;&quot;&gt;&lt;br&gt;&lt;/p&gt;" style="verticalAlign=top;align=left;overflow=fill;html=1;whiteSpace=wrap;" vertex="1" parent="1">
          <mxGeometry x="-680" y="-162" width="330" height="320" as="geometry" />
        </mxCell>
        <mxCell id="OMLcVuNN48qZMGDoJ0aI-41" value="&lt;p style=&quot;margin:0px;margin-top:4px;text-align:center;&quot;&gt;&lt;b&gt;Payment&lt;/b&gt;&lt;/p&gt;&lt;hr size=&quot;1&quot; style=&quot;border-style:solid;&quot;&gt;&lt;p style=&quot;margin:0px;margin-left:4px;&quot;&gt;-amount: double&lt;/p&gt;&lt;p style=&quot;margin:0px;margin-left:4px;&quot;&gt;-paymentMethod:String&lt;/p&gt;&lt;p style=&quot;margin:0px;margin-left:4px;&quot;&gt;-date:Date&lt;/p&gt;&lt;p style=&quot;margin:0px;margin-left:4px;&quot;&gt;&lt;br&gt;&lt;/p&gt;&lt;p style=&quot;margin:0px;margin-left:4px;&quot;&gt;&lt;br&gt;&lt;/p&gt;&lt;hr size=&quot;1&quot; style=&quot;border-style:solid;&quot;&gt;&lt;p style=&quot;margin:0px;margin-left:4px;&quot;&gt;+Payemtn(amount:double, paymentMethod:String, date:Date)&lt;/p&gt;&lt;p style=&quot;margin:0px;margin-left:4px;&quot;&gt;&lt;br&gt;&lt;/p&gt;&lt;p style=&quot;margin:0px;margin-left:4px;&quot;&gt;+getAmount(): double&lt;/p&gt;&lt;p style=&quot;margin:0px;margin-left:4px;&quot;&gt;&lt;br&gt;&lt;/p&gt;&lt;p style=&quot;margin:0px;margin-left:4px;&quot;&gt;+getPaymentMethod():String&lt;/p&gt;&lt;p style=&quot;margin:0px;margin-left:4px;&quot;&gt;&lt;br&gt;&lt;/p&gt;&lt;p style=&quot;margin:0px;margin-left:4px;&quot;&gt;+getDate():Date&lt;/p&gt;&lt;p style=&quot;margin:0px;margin-left:4px;&quot;&gt;&lt;br&gt;&lt;/p&gt;&lt;p style=&quot;margin:0px;margin-left:4px;&quot;&gt;+setAmount(amount:double)&lt;/p&gt;&lt;p style=&quot;margin:0px;margin-left:4px;&quot;&gt;&lt;br&gt;&lt;/p&gt;&lt;p style=&quot;margin:0px;margin-left:4px;&quot;&gt;+setPaymentMethod(paymentMethod:String)&lt;/p&gt;&lt;p style=&quot;margin:0px;margin-left:4px;&quot;&gt;&lt;br&gt;&lt;/p&gt;&lt;p style=&quot;margin:0px;margin-left:4px;&quot;&gt;+setDate(date:Date)&lt;/p&gt;&lt;p style=&quot;margin:0px;margin-left:4px;&quot;&gt;&lt;br&gt;&lt;/p&gt;&lt;p style=&quot;margin:0px;margin-left:4px;&quot;&gt;&lt;br&gt;&lt;/p&gt;&lt;p style=&quot;margin:0px;margin-left:4px;&quot;&gt;&lt;br&gt;&lt;/p&gt;&lt;p style=&quot;margin:0px;margin-left:4px;&quot;&gt;&lt;br&gt;&lt;/p&gt;" style="verticalAlign=top;align=left;overflow=fill;html=1;whiteSpace=wrap;" vertex="1" parent="1">
          <mxGeometry x="-740" y="735" width="330" height="350" as="geometry" />
        </mxCell>
        <mxCell id="OMLcVuNN48qZMGDoJ0aI-42" value="" style="endArrow=none;html=1;rounded=0;entryX=0;entryY=0.5;entryDx=0;entryDy=0;exitX=0.5;exitY=0;exitDx=0;exitDy=0;" edge="1" parent="1" source="OMLcVuNN48qZMGDoJ0aI-41" target="OMLcVuNN48qZMGDoJ0aI-6">
          <mxGeometry width="50" height="50" relative="1" as="geometry">
            <mxPoint x="-560" y="460" as="sourcePoint" />
            <mxPoint x="-510" y="410" as="targetPoint" />
            <Array as="points">
              <mxPoint x="-575" y="273" />
            </Array>
          </mxGeometry>
        </mxCell>
        <mxCell id="OMLcVuNN48qZMGDoJ0aI-43" value="1" style="text;html=1;align=center;verticalAlign=middle;resizable=0;points=[];autosize=1;strokeColor=none;fillColor=none;" vertex="1" parent="1">
          <mxGeometry x="-480" y="250" width="30" height="30" as="geometry" />
        </mxCell>
        <mxCell id="OMLcVuNN48qZMGDoJ0aI-44" value="0..*" style="text;html=1;align=center;verticalAlign=middle;resizable=0;points=[];autosize=1;strokeColor=none;fillColor=none;" vertex="1" parent="1">
          <mxGeometry x="-610" y="708" width="40" height="30" as="geometry" />
        </mxCell>
        <mxCell id="OMLcVuNN48qZMGDoJ0aI-46" value="&lt;p style=&quot;margin:0px;margin-top:4px;text-align:center;&quot;&gt;&lt;b&gt;PetHistory&lt;/b&gt;&lt;/p&gt;&lt;hr size=&quot;1&quot; style=&quot;border-style:solid;&quot;&gt;&lt;p style=&quot;margin:0px;margin-left:4px;&quot;&gt;&lt;span style=&quot;background-color: initial;&quot;&gt;-pet:Pet&lt;/span&gt;&lt;/p&gt;&lt;p style=&quot;margin:0px;margin-left:4px;&quot;&gt;&lt;span style=&quot;background-color: initial;&quot;&gt;-dateOfBirth:Date&lt;/span&gt;&lt;br&gt;&lt;/p&gt;&lt;p style=&quot;margin:0px;margin-left:4px;&quot;&gt;-dateOfPassing:Date&lt;/p&gt;&lt;p style=&quot;margin:0px;margin-left:4px;&quot;&gt;&lt;br&gt;&lt;/p&gt;&lt;p style=&quot;margin:0px;margin-left:4px;&quot;&gt;&lt;br&gt;&lt;/p&gt;&lt;hr size=&quot;1&quot; style=&quot;border-style:solid;&quot;&gt;&lt;p style=&quot;margin:0px;margin-left:4px;&quot;&gt;+PetHistory(pet:Pet, dateOfBirth:Date, dateOfPassing:Date)&lt;/p&gt;&lt;p style=&quot;margin:0px;margin-left:4px;&quot;&gt;&lt;br&gt;&lt;/p&gt;&lt;p style=&quot;margin:0px;margin-left:4px;&quot;&gt;+getPet():Pet&lt;/p&gt;&lt;p style=&quot;margin:0px;margin-left:4px;&quot;&gt;&lt;br&gt;&lt;/p&gt;&lt;p style=&quot;margin:0px;margin-left:4px;&quot;&gt;+getdateOfBirth:Date&lt;/p&gt;&lt;p style=&quot;margin:0px;margin-left:4px;&quot;&gt;&lt;br&gt;&lt;/p&gt;&lt;p style=&quot;margin:0px;margin-left:4px;&quot;&gt;+&lt;span style=&quot;background-color: initial;&quot;&gt;getdateOfPassing:Date&lt;/span&gt;&lt;/p&gt;&lt;p style=&quot;margin:0px;margin-left:4px;&quot;&gt;&lt;br&gt;&lt;/p&gt;&lt;p style=&quot;margin:0px;margin-left:4px;&quot;&gt;+setDateOfBirth(dateOfBirth:Date)&lt;/p&gt;&lt;p style=&quot;margin:0px;margin-left:4px;&quot;&gt;&lt;br&gt;&lt;/p&gt;&lt;p style=&quot;margin:0px;margin-left:4px;&quot;&gt;+setDateOfPassing(dateOfPassing:Date)&lt;br&gt;&lt;/p&gt;&lt;p style=&quot;margin:0px;margin-left:4px;&quot;&gt;&lt;br&gt;&lt;/p&gt;&lt;p style=&quot;margin:0px;margin-left:4px;&quot;&gt;&lt;br&gt;&lt;/p&gt;&lt;p style=&quot;margin:0px;margin-left:4px;&quot;&gt;&lt;br&gt;&lt;/p&gt;&lt;p style=&quot;margin:0px;margin-left:4px;&quot;&gt;&lt;br&gt;&lt;/p&gt;&lt;p style=&quot;margin:0px;margin-left:4px;&quot;&gt;&lt;br&gt;&lt;/p&gt;" style="verticalAlign=top;align=left;overflow=fill;html=1;whiteSpace=wrap;" vertex="1" parent="1">
          <mxGeometry x="-290" y="-280" width="330" height="320" as="geometry" />
        </mxCell>
        <mxCell id="OMLcVuNN48qZMGDoJ0aI-51" value="&lt;p style=&quot;margin:0px;margin-top:4px;text-align:center;&quot;&gt;&lt;b&gt;Staff&lt;/b&gt;&lt;/p&gt;&lt;hr size=&quot;1&quot; style=&quot;border-style:solid;&quot;&gt;&lt;p style=&quot;margin:0px;margin-left:4px;&quot;&gt;-name:String&lt;/p&gt;&lt;p style=&quot;margin:0px;margin-left:4px;&quot;&gt;&lt;span style=&quot;background-color: initial;&quot;&gt;-role:String&lt;/span&gt;&lt;/p&gt;&lt;p style=&quot;margin:0px;margin-left:4px;&quot;&gt;-contactInformation:String&lt;/p&gt;&lt;p style=&quot;margin:0px;margin-left:4px;&quot;&gt;&lt;br&gt;&lt;/p&gt;&lt;p style=&quot;margin:0px;margin-left:4px;&quot;&gt;&lt;br&gt;&lt;/p&gt;&lt;hr size=&quot;1&quot; style=&quot;border-style:solid;&quot;&gt;&lt;p style=&quot;margin:0px;margin-left:4px;&quot;&gt;+Staff(name:String, role:String, contactInformation:String)&lt;/p&gt;&lt;p style=&quot;margin:0px;margin-left:4px;&quot;&gt;&lt;br&gt;&lt;/p&gt;&lt;p style=&quot;margin:0px;margin-left:4px;&quot;&gt;+getName():String&lt;/p&gt;&lt;p style=&quot;margin:0px;margin-left:4px;&quot;&gt;&lt;br&gt;&lt;/p&gt;&lt;p style=&quot;margin:0px;margin-left:4px;&quot;&gt;+getRole():String&lt;/p&gt;&lt;p style=&quot;margin:0px;margin-left:4px;&quot;&gt;&lt;br&gt;&lt;/p&gt;&lt;p style=&quot;margin:0px;margin-left:4px;&quot;&gt;+getContactInformation():String&lt;/p&gt;&lt;p style=&quot;margin:0px;margin-left:4px;&quot;&gt;&lt;br&gt;&lt;/p&gt;&lt;p style=&quot;margin:0px;margin-left:4px;&quot;&gt;+setName(name:String)&lt;/p&gt;&lt;p style=&quot;margin:0px;margin-left:4px;&quot;&gt;&lt;br&gt;&lt;/p&gt;&lt;p style=&quot;margin:0px;margin-left:4px;&quot;&gt;+setRole(role:String)&lt;br&gt;&lt;/p&gt;&lt;p style=&quot;margin:0px;margin-left:4px;&quot;&gt;&lt;br&gt;&lt;/p&gt;&lt;p style=&quot;margin:0px;margin-left:4px;&quot;&gt;+setContactInformation(contactInformation:String)&lt;/p&gt;&lt;p style=&quot;margin:0px;margin-left:4px;&quot;&gt;&lt;br&gt;&lt;/p&gt;&lt;p style=&quot;margin:0px;margin-left:4px;&quot;&gt;&lt;br&gt;&lt;/p&gt;&lt;p style=&quot;margin:0px;margin-left:4px;&quot;&gt;&lt;br&gt;&lt;/p&gt;&lt;p style=&quot;margin:0px;margin-left:4px;&quot;&gt;&lt;br&gt;&lt;/p&gt;" style="verticalAlign=top;align=left;overflow=fill;html=1;whiteSpace=wrap;" vertex="1" parent="1">
          <mxGeometry x="760" y="-340" width="330" height="320" as="geometry" />
        </mxCell>
        <mxCell id="OMLcVuNN48qZMGDoJ0aI-53" value="" style="endArrow=none;html=1;rounded=0;entryX=-0.011;entryY=0.231;entryDx=0;entryDy=0;entryPerimeter=0;exitX=0.993;exitY=0.377;exitDx=0;exitDy=0;exitPerimeter=0;" edge="1" parent="1" source="OMLcVuNN48qZMGDoJ0aI-46" target="OMLcVuNN48qZMGDoJ0aI-2">
          <mxGeometry width="50" height="50" relative="1" as="geometry">
            <mxPoint x="70" y="118" as="sourcePoint" />
            <mxPoint x="170" y="120" as="targetPoint" />
            <Array as="points">
              <mxPoint x="140" y="-160" />
              <mxPoint x="140" y="118" />
            </Array>
          </mxGeometry>
        </mxCell>
        <mxCell id="OMLcVuNN48qZMGDoJ0aI-54" value="1" style="text;html=1;align=center;verticalAlign=middle;resizable=0;points=[];autosize=1;strokeColor=none;fillColor=none;" vertex="1" parent="1">
          <mxGeometry x="180" y="90" width="30" height="30" as="geometry" />
        </mxCell>
        <mxCell id="OMLcVuNN48qZMGDoJ0aI-55" value="1" style="text;html=1;align=center;verticalAlign=middle;resizable=0;points=[];autosize=1;strokeColor=none;fillColor=none;" vertex="1" parent="1">
          <mxGeometry x="35" y="-180" width="30" height="30" as="geometry" />
        </mxCell>
        <mxCell id="OMLcVuNN48qZMGDoJ0aI-56" value="" style="endArrow=none;html=1;rounded=0;" edge="1" parent="1" source="OMLcVuNN48qZMGDoJ0aI-5">
          <mxGeometry width="50" height="50" relative="1" as="geometry">
            <mxPoint x="-310" y="190" as="sourcePoint" />
            <mxPoint x="-360" y="70" as="targetPoint" />
            <Array as="points">
              <mxPoint x="-300" y="70" />
            </Array>
          </mxGeometry>
        </mxCell>
        <mxCell id="OMLcVuNN48qZMGDoJ0aI-57" value="1" style="text;html=1;align=center;verticalAlign=middle;resizable=0;points=[];autosize=1;strokeColor=none;fillColor=none;" vertex="1" parent="1">
          <mxGeometry x="-305" y="170" width="30" height="30" as="geometry" />
        </mxCell>
        <mxCell id="OMLcVuNN48qZMGDoJ0aI-58" value="1..*" style="text;html=1;align=center;verticalAlign=middle;resizable=0;points=[];autosize=1;strokeColor=none;fillColor=none;" vertex="1" parent="1">
          <mxGeometry x="-360" y="48" width="40" height="30" as="geometry" />
        </mxCell>
        <mxCell id="OMLcVuNN48qZMGDoJ0aI-59" value="" style="endArrow=none;html=1;rounded=0;entryX=-0.004;entryY=0.128;entryDx=0;entryDy=0;entryPerimeter=0;" edge="1" parent="1" target="OMLcVuNN48qZMGDoJ0aI-51">
          <mxGeometry width="50" height="50" relative="1" as="geometry">
            <mxPoint x="440" y="-230" as="sourcePoint" />
            <mxPoint x="440" y="-350" as="targetPoint" />
            <Array as="points">
              <mxPoint x="440" y="-300" />
            </Array>
          </mxGeometry>
        </mxCell>
        <mxCell id="OMLcVuNN48qZMGDoJ0aI-60" value="1" style="text;html=1;align=center;verticalAlign=middle;resizable=0;points=[];autosize=1;strokeColor=none;fillColor=none;" vertex="1" parent="1">
          <mxGeometry x="415" y="-262" width="30" height="30" as="geometry" />
        </mxCell>
        <mxCell id="OMLcVuNN48qZMGDoJ0aI-61" value="*" style="text;html=1;align=center;verticalAlign=middle;resizable=0;points=[];autosize=1;strokeColor=none;fillColor=none;" vertex="1" parent="1">
          <mxGeometry x="730" y="-322" width="30" height="30" as="geometry" />
        </mxCell>
        <mxCell id="OMLcVuNN48qZMGDoJ0aI-62" value="" style="endArrow=none;html=1;rounded=0;" edge="1" parent="1" source="OMLcVuNN48qZMGDoJ0aI-1" target="OMLcVuNN48qZMGDoJ0aI-39">
          <mxGeometry width="50" height="50" relative="1" as="geometry">
            <mxPoint x="410" y="70" as="sourcePoint" />
            <mxPoint x="460" y="20" as="targetPoint" />
          </mxGeometry>
        </mxCell>
        <mxCell id="OMLcVuNN48qZMGDoJ0aI-63" value="1" style="text;html=1;align=center;verticalAlign=middle;resizable=0;points=[];autosize=1;strokeColor=none;fillColor=none;" vertex="1" parent="1">
          <mxGeometry x="410" y="10" width="30" height="30" as="geometry" />
        </mxCell>
        <mxCell id="OMLcVuNN48qZMGDoJ0aI-65" value="*" style="text;html=1;align=center;verticalAlign=middle;resizable=0;points=[];autosize=1;strokeColor=none;fillColor=none;" vertex="1" parent="1">
          <mxGeometry x="405" y="48" width="30" height="30" as="geometry" />
        </mxCell>
        <mxCell id="OMLcVuNN48qZMGDoJ0aI-70" value="Application" style="swimlane;fontStyle=0;childLayout=stackLayout;horizontal=1;startSize=26;fillColor=none;horizontalStack=0;resizeParent=1;resizeParentMax=0;resizeLast=0;collapsible=1;marginBottom=0;whiteSpace=wrap;html=1;" vertex="1" parent="1">
          <mxGeometry x="490" y="550" width="220" height="70" as="geometry" />
        </mxCell>
        <mxCell id="OMLcVuNN48qZMGDoJ0aI-72" value="&lt;pre style=&quot;margin-top: 0px; margin-bottom: calc(1.5em); padding: var(--su12); border: 0px; font-variant-numeric: inherit; font-variant-east-asian: inherit; font-variant-alternates: inherit; font-variant-position: inherit; font-stretch: inherit; line-height: var(--lh-md); font-family: var(--ff-mono); font-optical-sizing: inherit; font-kerning: inherit; font-feature-settings: inherit; font-variation-settings: inherit; font-size: var(--fs-body1); vertical-align: baseline; box-sizing: inherit; width: auto; max-height: 600px; overflow: auto; background-color: var(--highlight-bg); border-radius: var(--br-md); scrollbar-color: var(--scrollbar) transparent; overflow-wrap: normal; --theme-base-primary-color-h: 27; --theme-base-primary-color-s: 89%; --theme-base-primary-color-l: 48%; --theme-primary-custom-100: hsl(var(--theme-base-primary-color-h), var(--theme-base-primary-color-s), calc(var(--theme-base-primary-color-l) + ((100% - var(--theme-base-primary-color-l)) * .9))); --theme-primary-custom-200: hsl(var(--theme-base-primary-color-h), var(--theme-base-primary-color-s), calc(var(--theme-base-primary-color-l) + ((100% - var(--theme-base-primary-color-l)) * .75))); --theme-primary-custom-300: hsl(var(--theme-base-primary-color-h), var(--theme-base-primary-color-s), calc(var(--theme-base-primary-color-l) + ((100% - var(--theme-base-primary-color-l)) * .5))); --theme-primary-custom-400: hsl(var(--theme-base-primary-color-h), var(--theme-base-primary-color-s), var(--theme-base-primary-color-l)); --theme-primary-custom-500: hsl(var(--theme-base-primary-color-h), var(--theme-base-primary-color-s), calc(var(--theme-base-primary-color-l) + (var(--theme-base-primary-color-l) * -.3))); --theme-primary-custom-600: hsl(var(--theme-base-primary-color-h), var(--theme-base-primary-color-s), calc(var(--theme-base-primary-color-l) + (var(--theme-base-primary-color-l) * -.6))); --theme-primary-custom: var(--theme-primary-custom-400); --theme-button-color: initial; --theme-button-hover-color: initial; --theme-button-hover-background-color: initial; --theme-button-active-background-color: initial; --theme-button-selected-color: initial; --theme-button-selected-background-color: initial; --theme-button-outlined-border-color: initial; --theme-button-outlined-selected-border-color: initial; --theme-button-primary-color: initial; --theme-button-primary-active-color: initial; --theme-button-primary-hover-color: initial; --theme-button-primary-selected-color: initial; --theme-button-primary-background-color: initial; --theme-button-primary-active-background-color: initial; --theme-button-primary-hover-background-color: initial; --theme-button-primary-selected-background-color: initial; --theme-background-color: var(--white); --theme-background-position: top left; --theme-background-repeat: repeat; --theme-background-size: auto; --theme-background-attachment: auto; --theme-content-background-color: var(--white); --theme-content-border-color: var(--black-225); --theme-header-background-color: var(--theme-primary); --theme-header-background-position: center left; --theme-header-background-repeat: repeat; --theme-header-background-size: auto; --theme-header-background-border-bottom: 0; --theme-header-link-color: var(--theme-primary); --theme-header-sponsored-color: hsla(0,0%,100%,0.4); --theme-header-foreground-color: transparent; --theme-header-foreground-position: bottom right; --theme-header-foreground-repeat: no-repeat; --theme-header-foreground-size: auto; --theme-footer-background-color: hsl(210,8%,5%); --theme-footer-background-position: top left; --theme-footer-background-repeat: no-repeat; --theme-footer-background-size: auto; --theme-footer-background-border-top: 0; --theme-footer-title-color: var(--black-250); --theme-footer-text-color: var(--black-300); --theme-footer-link-color: var(--black-300); --theme-footer-link-color-hover: var(--black-200); --theme-footer-divider-color: var(--black-500); --theme-footer-padding-top: 0; --theme-footer-padding-bottom: 0; --theme-link-color: initial; --theme-link-color-hover: initial; --theme-link-color-visited: initial; --theme-body-font-family: var(--ff-sans); --theme-body-font-color: var(--black-600); --theme-post-title-font-family: var(--ff-sans); --theme-post-title-color: var(--theme-link-color); --theme-post-title-color-hover: var(--theme-link-color-hover); --theme-post-title-color-visited: var(--theme-link-color-visited); --theme-post-body-font-family: var(--ff-sans); --theme-post-owner-background-color: var(--theme-secondary-100); --theme-post-owner-new-background-color: var(--theme-secondary-200); --theme-topbar-bottom-border: 1px solid var(--black-225); color: rgb(12, 13, 14);&quot;&gt;&lt;code style=&quot;margin: 0px; padding: 0px; border: 0px; font-style: inherit; font-variant: inherit; font-weight: inherit; font-stretch: inherit; line-height: inherit; font-family: var(--ff-mono); font-optical-sizing: inherit; font-kerning: inherit; font-feature-settings: inherit; font-variation-settings: inherit; font-size: var(--_pr-code-fs); vertical-align: baseline; box-sizing: inherit; background-color: transparent; white-space: inherit; --theme-base-primary-color-h: 27; --theme-base-primary-color-s: 89%; --theme-base-primary-color-l: 48%; --theme-primary-custom-100: hsl(var(--theme-base-primary-color-h), var(--theme-base-primary-color-s), calc(var(--theme-base-primary-color-l) + ((100% - var(--theme-base-primary-color-l)) * .9))); --theme-primary-custom-200: hsl(var(--theme-base-primary-color-h), var(--theme-base-primary-color-s), calc(var(--theme-base-primary-color-l) + ((100% - var(--theme-base-primary-color-l)) * .75))); --theme-primary-custom-300: hsl(var(--theme-base-primary-color-h), var(--theme-base-primary-color-s), calc(var(--theme-base-primary-color-l) + ((100% - var(--theme-base-primary-color-l)) * .5))); --theme-primary-custom-400: hsl(var(--theme-base-primary-color-h), var(--theme-base-primary-color-s), var(--theme-base-primary-color-l)); --theme-primary-custom-500: hsl(var(--theme-base-primary-color-h), var(--theme-base-primary-color-s), calc(var(--theme-base-primary-color-l) + (var(--theme-base-primary-color-l) * -.3))); --theme-primary-custom-600: hsl(var(--theme-base-primary-color-h), var(--theme-base-primary-color-s), calc(var(--theme-base-primary-color-l) + (var(--theme-base-primary-color-l) * -.6))); --theme-primary-custom: var(--theme-primary-custom-400); --theme-button-color: initial; --theme-button-hover-color: initial; --theme-button-hover-background-color: initial; --theme-button-active-background-color: initial; --theme-button-selected-color: initial; --theme-button-selected-background-color: initial; --theme-button-outlined-border-color: initial; --theme-button-outlined-selected-border-color: initial; --theme-button-primary-color: initial; --theme-button-primary-active-color: initial; --theme-button-primary-hover-color: initial; --theme-button-primary-selected-color: initial; --theme-button-primary-background-color: initial; --theme-button-primary-active-background-color: initial; --theme-button-primary-hover-background-color: initial; --theme-button-primary-selected-background-color: initial; --theme-background-color: var(--white); --theme-background-position: top left; --theme-background-repeat: repeat; --theme-background-size: auto; --theme-background-attachment: auto; --theme-content-background-color: var(--white); --theme-content-border-color: var(--black-225); --theme-header-background-color: var(--theme-primary); --theme-header-background-position: center left; --theme-header-background-repeat: repeat; --theme-header-background-size: auto; --theme-header-background-border-bottom: 0; --theme-header-link-color: var(--theme-primary); --theme-header-sponsored-color: hsla(0,0%,100%,0.4); --theme-header-foreground-color: transparent; --theme-header-foreground-position: bottom right; --theme-header-foreground-repeat: no-repeat; --theme-header-foreground-size: auto; --theme-footer-background-color: hsl(210,8%,5%); --theme-footer-background-position: top left; --theme-footer-background-repeat: no-repeat; --theme-footer-background-size: auto; --theme-footer-background-border-top: 0; --theme-footer-title-color: var(--black-250); --theme-footer-text-color: var(--black-300); --theme-footer-link-color: var(--black-300); --theme-footer-link-color-hover: var(--black-200); --theme-footer-divider-color: var(--black-500); --theme-footer-padding-top: 0; --theme-footer-padding-bottom: 0; --theme-link-color: initial; --theme-link-color-hover: initial; --theme-link-color-visited: initial; --theme-body-font-family: var(--ff-sans); --theme-body-font-color: var(--black-600); --theme-post-title-font-family: var(--ff-sans); --theme-post-title-color: var(--theme-link-color); --theme-post-title-color-hover: var(--theme-link-color-hover); --theme-post-title-color-visited: var(--theme-link-color-visited); --theme-post-body-font-family: var(--ff-sans); --theme-post-owner-background-color: var(--theme-secondary-100); --theme-post-owner-new-background-color: var(--theme-secondary-200); --theme-topbar-bottom-border: 1px solid var(--black-225); color: var(--black-600); border-radius: 0px;&quot;&gt;main(String[] args): void&lt;/code&gt;&lt;/pre&gt;" style="text;strokeColor=none;fillColor=none;align=left;verticalAlign=top;spacingLeft=4;spacingRight=4;overflow=hidden;rotatable=0;points=[[0,0.5],[1,0.5]];portConstraint=eastwest;whiteSpace=wrap;html=1;" vertex="1" parent="OMLcVuNN48qZMGDoJ0aI-70">
          <mxGeometry y="26" width="220" height="44" as="geometry" />
        </mxCell>
      </root>
    </mxGraphModel>
  </diagram>
</mxfile>
